PathFileType	4	(X/Y/Z)	11_2_26_p1_0-234.trc
DataRate	CameraRate	NumFrames	NumMarkers	Units	OrigDataRate	OrigDataStartFrame	OrigNumFrames
60.0	60.0	5	27	m	60.0	58	235
Frame#	Time	RHip			RKnee			RAnkle			RBigToe			RSmallToe			RHeel			LHip			LKnee			LAnkle			LBigToe			LSmallToe			LHeel			Neck			Head			Nose			RShoulder			RElbow			RWrist			RThumb			RIndex			RPinky			LShoulder			LElbow			LWrist			LThumb			LIndex			LPinky			
		X1	Y1	Z1	X2	Y2	Z2	X3	Y3	Z3	X4	Y4	Z4	X5	Y5	Z5	X6	Y6	Z6	X7	Y7	Z7	X8	Y8	Z8	X9	Y9	Z9	X10	Y10	Z10	X11	Y11	Z11	X12	Y12	Z12	X13	Y13	Z13	X14	Y14	Z14	X15	Y15	Z15	X16	Y16	Z16	X17	Y17	Z17	X18	Y18	Z18	X19	Y19	Z19	X20	Y20	Z20	X21	Y21	Z21	X22	Y22	Z22	X23	Y23	Z23	X24	Y24	Z24	X25	Y25	Z25	X26	Y26	Z26	X27	Y27	Z27	
58	0.9666666666666667	0.3537029438563483	0.617344232124782	0.5881579409639752	0.3477181425707483	0.6634403798372746	1.0283341325530748	0.3449247174882627	0.7878527865767523	1.476221661648011	0.34929263636267766	0.5407168544828345	1.4613951480834662	0.40357793873096537	0.5990637990254281	1.4687223625696064	0.32648363240715095	0.8381371709477854	1.5251355662500126	0.1437678624025672	0.5872681278075311	0.5897248098467195	0.162110438007923	0.6537323890996682	1.0429636256008683	0.1670800639081707	0.714087209843058	1.4537176595894652	0.20394017620887167	0.5570804609317184	1.4814217788756927	0.13912658845516118	0.5814768636315344	1.473250044426073	0.1811649368382506	0.7988685393479176	1.5204907747738199	0.23389815502064867	0.5741616617017304	0.09464908242433448	0.23328237245354838	0.5035051438208663	-0.13483394542507182	0.2244718789207487	0.40928489687031316	-0.0174100330267612	0.393052952806983	0.5398976275127833	0.16935777011433537	0.4593276328375211	0.6320084503577087	0.44720620953473517	0.46148139060791027	0.5549508362375835	0.67188146833782	0.4234365496777459	0.5346091190539937	0.7765988815893405	0.42835370837242454	0.5386748325552695	0.7991490547928708	0.4587648853045602	0.5789593403235249	0.7957844505425384	0.10416476844580866	0.5570407596246734	0.1728871572865256	0.03345118586049055	0.5788249097612553	0.43363701907825664	0.05758773497301632	0.5247733342038206	0.6769978126771214	0.10816682217815414	0.5015580090671339	0.7659925122805814	0.08593025251420701	0.49889740162993634	0.7976734285613029	0.029550297031988196	0.5703582769281553	0.8088425349112845
59	0.9833333333333333	0.35370562288650625	0.6173850474684685	0.5882307313283232	0.34768353950189185	0.6634723282378918	1.0283424113448476	0.3405903921683478	0.7861742715610731	1.4759335143166188	0.34925705369876325	0.5402622085537345	1.4610821454211684	0.4034997497000141	0.5988488116154698	1.4686783458608148	0.32643108814513283	0.8383518951223969	1.5252858399128064	0.14382877486378665	0.587284340647509	0.5897693534918128	0.16206455399415998	0.6536786112511437	1.0429087803004715	0.16708244645611964	0.7139802161402364	1.4536004320108373	0.20398255939446697	0.5570703442672975	1.4814593684277642	0.13850756956305127	0.5827793246190079	1.4697088756945318	0.18497729209784533	0.8044847772915847	1.5181107998847962	0.23385429617289508	0.5741729987149908	0.0946219602707664	0.23333550881509585	0.5034769050300109	-0.134871108902176	0.22451185050881103	0.4092706832275108	-0.017485260602175	0.3925978583058443	0.5388628219691437	0.16579340614931629	0.45936462668250494	0.6321559830762281	0.447096326125941	0.4642511596155349	0.5672941326926036	0.6749586091179554	0.4183190687335763	0.5466502615878844	0.7770631816194646	0.431559948695012	0.5504237337515009	0.7982742519853719	0.4587279638243172	0.5794264644014511	0.7959368147855409	0.10420110056305534	0.5570129023115425	0.17278921490211877	0.03959246498461013	0.5665521998684117	0.4309332224504224	0.05135646865089612	0.5384975028383568	0.6809770073264536	0.11157771395834185	0.5043930258648524	0.7671344843834579	0.08609013324471991	0.4998509159225053	0.7980255095863906	0.029444775742896914	0.5710385199739324	0.8084934512163106
60	1.0	0.3495755737024126	0.6157971992466628	0.588109299877443	0.3459542143643639	0.6759413489354977	1.0331168960552726	0.339526909778038	0.7866888385124808	1.480906306523611	0.34996091310925503	0.5397062086336871	1.4562827333667947	0.40333978742107696	0.6001066463599211	1.4691891811312099	0.32243467647481344	0.835265030716151	1.5238093183267833	0.14748767017265751	0.5892255780136454	0.5899791583465077	0.16211257247004646	0.6540255633012166	1.04281820743313	0.16667133247223173	0.715127855197521	1.4498679151038878	0.20433163393157083	0.5611852340431173	1.4838703026454247	0.13855036212531743	0.5831780825417213	1.469441837690468	0.18509876683081805	0.8032778689551986	1.5168920199233553	0.23914710729209726	0.5613750357336699	0.09331966419065127	0.2333230383610564	0.5034932208257623	-0.13494474689266406	0.22457500927537916	0.4092708089710031	-0.017467295237793463	0.3925720582525516	0.5385975938238481	0.1656804175505221	0.45933283135802455	0.632340285630054	0.44722678000944976	0.45987750929762566	0.5818599129812717	0.6793642451368924	0.41823945120062944	0.5477143565736445	0.7773257309771746	0.42776312591509374	0.5498857337747918	0.7984076596589839	0.4560464895466718	0.5876292687540489	0.7946263950300652	0.10428368771114653	0.5569562164045283	0.17290377461920553	0.03382912830805688	0.5805993110042084	0.4381754832944346	0.04508039299304397	0.55235732131476	0.676902138527988	0.11185913739207111	0.5019128957738596	0.7568902777142619	0.08500857945059173	0.4967629505041094	0.7883224266940625	0.030113056081471565	0.5701718500345652	0.8035487727646642
61	1.0166666666666666	0.3535579294044226	0.6176918893474473	0.5882936893006514	0.3432878535880434	0.6617050947344573	1.0280145273976713	0.3395467800441728	0.7867457248232855	1.480929253064955	0.35009769888336684	0.5396436865714748	1.4563027134182507	0.403443143465565	0.5996576500258921	1.4689491596060635	0.32244641199028007	0.8355712229993644	1.5238936650666675	0.14753406916004996	0.5891574103760425	0.5900615449360089	0.16223447099334948	0.6538827626352968	1.0427781937032445	0.16673748798426358	0.7150352841098041	1.4498506027402376	0.20345634543545538	0.5587252345265836	1.4777747642894747	0.13883253951744406	0.582555851551109	1.4687209981869727	0.18401571139414732	0.8044800238122843	1.52359461501727	0.23394011265617143	0.5739914025065009	0.09460808130497428	0.23328954616154296	0.5036439488462404	-0.1349450009317114	0.22459410560940266	0.40935217471681146	-0.017462519195090415	0.3925885922204078	0.5386270700560145	0.16567803525735128	0.4595603903368185	0.6319428847695046	0.450974166262534	0.45956542785102317	0.5824300548424526	0.6795555893170382	0.41875789634212424	0.5477788504272824	0.7737313058168046	0.4271943431728194	0.5647493319227287	0.8029435075195576	0.45297071920909043	0.5930201280594105	0.7966905258549499	0.10423754005939988	0.5568244437224804	0.17288921284209313	0.03379331812880445	0.5808751260423959	0.4382285159538464	0.04502442171700634	0.5527890881713232	0.6771478204783256	0.11351623477495514	0.5034707232663214	0.7583013320083734	0.08952748259939462	0.5007550881449716	0.7935325116045547	0.03433181396803188	0.5728029083918265	0.804342063860699
62	1.0333333333333334	0.35358252407906016	0.6175428674048004	0.5882825543913587	0.3434050025112062	0.6616484158737564	1.0279113702743976	0.3396835427958956	0.7864039936580374	1.480838667815477	0.3499680856750417	0.5393656947640267	1.45611403173672	0.40300404358333275	0.5983337852834909	1.4683821437600892	0.3225773912052875	0.8350906596723187	1.5243839372853805	0.14762901423032554	0.5890243246467917	0.590035967596046	0.16317077801983132	0.6530470700796909	1.038559899739637	0.16664723960444	0.7151805165736568	1.450052504386759	0.20543752446265914	0.5603321446324908	1.4787623861159789	0.13882396237438757	0.5829485261494062	1.469329059453007	0.18267460707890731	0.790317042280849	1.5113871146340692	0.2339669984774515	0.5740437352591792	0.09466628692997127	0.2330649302796543	0.502703294030648	-0.13873921351009802	0.2245826012039316	0.4092411778913541	-0.017405799216366077	0.3925542324618719	0.538678381478443	0.16570796083758185	0.45882097784376397	0.6304969837846818	0.4470368372015709	0.45942221683571943	0.5825370331845707	0.6794133983878569	0.4185809399455094	0.5481736587065122	0.7738375608786903	0.4232235814049195	0.564393748754246	0.7950589713844998	0.4516871589178357	0.6005163858394519	0.7907438861440252	0.10427073110130587	0.5567323371185093	0.1728914606429687	0.033452546432213875	0.5821667737344197	0.434757054121327	0.045124631577962176	0.5530839254535066	0.6770822366167805	0.11386578449798032	0.5030563102343195	0.7537511929888103	0.08978430068078126	0.5003206985008545	0.793374481496778	0.03470388788413693	0.5860067529559705	0.811320540728767
